<?xml version="1.0" encoding="UTF-8"?>
<svg width="275px" height="40px" viewBox="0 0 275 40" version="1.1" xmlns="http://www.w3.org/2000/svg" xmlns:xlink="http://www.w3.org/1999/xlink">
    <title>kiddo-logo</title>
    <g id="Page-1" stroke="none" stroke-width="1" fill="none" fill-rule="evenodd">
        <g id="kiddo-logo" fill-rule="nonzero">
            <path d="M129.155,25.8127 C129.155,29.925 127.721,33.3176 124.853,35.9905 C121.985,38.6635 118.707,40 115.019,40 C111.332,40 108.071,38.6635 105.237,35.9905 C102.403,33.3518 100.986,29.9764 100.986,25.8641 C100.986,23.0198 101.72,20.4839 103.188,18.2564 C104.657,16.0632 106.449,14.4354 108.566,13.3731 C110.649,12.345 112.817,11.831 115.07,11.831 C117.324,11.831 119.509,12.3793 121.626,13.4759 C123.743,14.6068 125.536,16.2517 127.004,18.4106 C128.438,20.6038 129.155,23.0712 129.155,25.8127 Z" id="Path" fill="#07D203"></path>
            <path d="M274.507,25.8127 C274.507,29.925 273.073,33.3176 270.205,35.9905 C267.337,38.6635 264.059,40 260.371,40 C256.684,40 253.423,38.6635 250.589,35.9905 C247.755,33.3518 246.338,29.9764 246.338,25.8641 C246.338,23.0198 247.072,20.4839 248.54,18.2564 C250.009,16.0632 251.801,14.4354 253.918,13.3731 C256.001,12.345 258.169,11.831 260.423,11.831 C262.676,11.831 264.861,12.3793 266.978,13.4759 C269.095,14.6068 270.888,16.2517 272.356,18.4106 C273.79,20.6038 274.507,23.0712 274.507,25.8127 Z" id="Path" fill="#FF8A00"></path>
            <path d="M16.0085,26.0714 L22.8162,31.6837 C23.6693,32.398 24.1982,32.9422 24.403,33.3163 C24.6418,33.6905 24.7613,34.0476 24.7613,34.3878 C24.7613,35.2041 24.2323,36.3095 23.1745,37.7041 C22.0143,39.1327 20.9906,39.8469 20.1034,39.8469 C19.3526,39.8469 18.3118,39.3537 16.981,38.3673 L16.4692,38.0102 C15.6843,37.3639 14.4729,36.2415 12.835,34.6429 C11.197,33.0102 9.9515,31.8537 9.0984,31.1735 L9.0984,35.102 C9.0984,35.8844 9.0643,36.4796 8.996,36.8878 C8.9619,37.2619 8.8083,37.7041 8.5354,38.2143 C8.0917,39.0986 6.778,39.5408 4.594,39.5408 C2.4442,39.5408 1.1305,39.0816 0.6527,38.1633 C0.4139,37.6531 0.2603,37.2109 0.1921,36.8367 C0.1579,36.4286 0.1409,35.8333 0.1409,35.051 L0.1409,4.4898 C0.1409,3.70748 0.1579,3.12925 0.1921,2.7551 C0.2603,2.34694 0.4139,1.88775 0.6527,1.37755 C1.1305,0.459183 2.4613,0 4.6452,0 C6.2832,0 7.4434,0.289116 8.1259,0.867348 C8.706,1.34354 9.0131,2.09184 9.0472,3.11224 C9.0813,3.41837 9.0984,3.89456 9.0984,4.54082 L9.0984,20.7143 C9.7126,20.2041 10.634,19.3367 11.8624,18.1122 C13.125,16.8878 14.0634,16.0204 14.6777,15.5102 L15.2919,15.102 C16.4862,14.1837 17.5099,13.7245 18.363,13.7245 C19.2161,13.7245 20.1887,14.4218 21.2806,15.8163 C22.4067,17.1769 22.9698,18.2483 22.9698,19.0306 C22.9698,19.8129 22.3385,20.7313 21.0759,21.7857 L16.0085,26.0714 Z" id="Path" fill="#746F61"></path>
            <path d="M27.5833,17.1429 C27.5833,16.3605 27.6004,15.7823 27.6345,15.4082 C27.7027,15 27.8563,14.5408 28.0951,14.0306 C28.5729,13.1463 29.9037,12.7041 32.0876,12.7041 C33.7256,12.7041 34.8858,12.9932 35.5683,13.5714 C36.1484,14.0476 36.4555,14.7789 36.4896,15.7653 C36.5238,16.1054 36.5408,16.5986 36.5408,17.2449 L36.5408,35.102 C36.5408,35.8844 36.5067,36.4796 36.4384,36.8878 C36.4043,37.2619 36.2508,37.7041 35.9778,38.2143 C35.5342,39.0986 34.2204,39.5408 32.0365,39.5408 C29.8867,39.5408 28.5729,39.0816 28.0951,38.1633 C27.8563,37.6531 27.7027,37.2109 27.6345,36.8367 C27.6004,36.4626 27.5833,35.8673 27.5833,35.051 L27.5833,17.1429 Z M35.9778,7.70408 C35.7389,8.18027 35.2953,8.52041 34.6469,8.72449 C33.9986,8.92857 33.1284,9.03061 32.0365,9.03061 C30.9786,9.03061 30.1255,8.92857 29.4772,8.72449 C28.8288,8.52041 28.3681,8.16327 28.0951,7.65306 C27.8563,7.14286 27.7027,6.70068 27.6345,6.32653 C27.6004,5.91837 27.5833,5.32313 27.5833,4.54082 C27.5833,3.7585 27.6004,3.18027 27.6345,2.80612 C27.7027,2.39796 27.8563,1.95578 28.0951,1.47959 C28.5729,0.561224 29.9037,0.10204 32.0876,0.10204 C34.2374,0.10204 35.5342,0.561224 35.9778,1.47959 C36.2508,1.9898 36.4043,2.44898 36.4384,2.85714 C36.5067,3.23129 36.5408,3.80953 36.5408,4.59184 C36.5408,5.37415 36.5067,5.96939 36.4384,6.37755 C36.4043,6.7517 36.2508,7.19388 35.9778,7.70408 Z" id="Shape" fill="#746F61"></path>
            <path d="M58.698,1.47959 C58.971,0.969388 59.432,0.612246 60.08,0.408165 C60.729,0.204082 61.582,0.10204 62.64,0.10204 C63.732,0.10204 64.602,0.204082 65.25,0.408165 C65.898,0.612246 66.342,0.969388 66.581,1.47959 C66.854,1.9898 67.007,2.44898 67.042,2.85714 C67.11,3.23129 67.144,3.80953 67.144,4.59184 L67.144,35.051 C67.144,35.8333 67.11,36.4286 67.042,36.8367 C67.007,37.2109 66.854,37.6361 66.581,38.1122 C66.069,39.0306 64.619,39.4898 62.23,39.4898 C59.876,39.4898 58.562,38.6565 58.289,36.9898 C56.856,38.6224 54.859,39.4388 52.3,39.4388 C49.229,39.4388 46.4307,38.1122 43.9056,35.4592 C41.3804,32.7721 40.1178,29.6599 40.1178,26.1224 C40.1178,22.551 41.3804,19.4218 43.9056,16.7347 C46.4649,14.0476 49.263,12.7041 52.3,12.7041 C54.825,12.7041 56.787,13.5544 58.186,15.2551 L58.186,4.54082 C58.186,3.7585 58.203,3.18027 58.238,2.80612 C58.306,2.39796 58.459,1.95578 58.698,1.47959 Z" id="Path" fill="#746F61"></path>
            <path d="M89.29,1.47959 C89.563,0.969388 90.024,0.612246 90.672,0.408165 C91.32,0.204082 92.173,0.10204 93.231,0.10204 C94.323,0.10204 95.193,0.204082 95.842,0.408165 C96.49,0.612246 96.934,0.969388 97.172,1.47959 C97.445,1.9898 97.599,2.44898 97.633,2.85714 C97.701,3.23129 97.736,3.80953 97.736,4.59184 L97.736,35.051 C97.736,35.8333 97.701,36.4286 97.633,36.8367 C97.599,37.2109 97.445,37.6361 97.172,38.1122 C96.661,39.0306 95.21,39.4898 92.822,39.4898 C90.467,39.4898 89.153,38.6565 88.88,36.9898 C87.447,38.6224 85.451,39.4388 82.892,39.4388 C79.82,39.4388 77.022,38.1122 74.497,35.4592 C71.972,32.7721 70.709,29.6599 70.709,26.1224 C70.709,22.551 71.972,19.4218 74.497,16.7347 C77.056,14.0476 79.855,12.7041 82.892,12.7041 C85.417,12.7041 87.379,13.5544 88.778,15.2551 L88.778,4.54082 C88.778,3.7585 88.795,3.18027 88.829,2.80612 C88.897,2.39796 89.051,1.95578 89.29,1.47959 Z" id="Path" fill="#746F61"></path>
            <path d="M161.318,26.0714 L168.126,31.6837 C168.979,32.398 169.508,32.9422 169.713,33.3163 C169.952,33.6905 170.071,34.0476 170.071,34.3878 C170.071,35.2041 169.542,36.3095 168.484,37.7041 C167.324,39.1327 166.3,39.8469 165.413,39.8469 C164.662,39.8469 163.622,39.3537 162.291,38.3673 L161.779,38.0102 C160.994,37.3639 159.783,36.2415 158.145,34.6429 C156.507,33.0102 155.261,31.8537 154.408,31.1735 L154.408,35.102 C154.408,35.8844 154.374,36.4796 154.306,36.8878 C154.272,37.2619 154.118,37.7041 153.845,38.2143 C153.402,39.0986 152.088,39.5408 149.904,39.5408 C147.754,39.5408 146.44,39.0816 145.963,38.1633 C145.724,37.6531 145.57,37.2109 145.502,36.8367 C145.468,36.4286 145.451,35.8333 145.451,35.051 L145.451,4.4898 C145.451,3.70748 145.468,3.12925 145.502,2.7551 C145.57,2.34694 145.724,1.88775 145.963,1.37755 C146.44,0.459183 147.771,0 149.955,0 C151.593,0 152.753,0.289116 153.436,0.867348 C154.016,1.34354 154.323,2.09184 154.357,3.11224 C154.391,3.41837 154.408,3.89456 154.408,4.54082 L154.408,20.7143 C155.022,20.2041 155.944,19.3367 157.172,18.1122 C158.435,16.8878 159.373,16.0204 159.988,15.5102 L160.602,15.102 C161.796,14.1837 162.82,13.7245 163.673,13.7245 C164.526,13.7245 165.499,14.4218 166.59,15.8163 C167.717,17.1769 168.28,18.2483 168.28,19.0306 C168.28,19.8129 167.648,20.7313 166.386,21.7857 L161.318,26.0714 Z" id="Path" fill="#746F61"></path>
            <path d="M172.893,17.1429 C172.893,16.3605 172.91,15.7823 172.944,15.4082 C173.013,15 173.166,14.5408 173.405,14.0306 C173.883,13.1463 175.214,12.7041 177.398,12.7041 C179.035,12.7041 180.196,12.9932 180.878,13.5714 C181.458,14.0476 181.765,14.7789 181.799,15.7653 C181.834,16.1054 181.851,16.5986 181.851,17.2449 L181.851,35.102 C181.851,35.8844 181.817,36.4796 181.748,36.8878 C181.714,37.2619 181.561,37.7041 181.288,38.2143 C180.844,39.0986 179.53,39.5408 177.346,39.5408 C175.197,39.5408 173.883,39.0816 173.405,38.1633 C173.166,37.6531 173.013,37.2109 172.944,36.8367 C172.91,36.4626 172.893,35.8673 172.893,35.051 L172.893,17.1429 Z M181.288,7.70408 C181.049,8.18027 180.605,8.52041 179.957,8.72449 C179.308,8.92857 178.438,9.03061 177.346,9.03061 C176.288,9.03061 175.435,8.92857 174.787,8.72449 C174.139,8.52041 173.678,8.16327 173.405,7.65306 C173.166,7.14286 173.013,6.70068 172.944,6.32653 C172.91,5.91837 172.893,5.32313 172.893,4.54082 C172.893,3.7585 172.91,3.18027 172.944,2.80612 C173.013,2.39796 173.166,1.95578 173.405,1.47959 C173.883,0.561224 175.214,0.10204 177.398,0.10204 C179.547,0.10204 180.844,0.561224 181.288,1.47959 C181.561,1.9898 181.714,2.44898 181.748,2.85714 C181.817,3.23129 181.851,3.80953 181.851,4.59184 C181.851,5.37415 181.817,5.96939 181.748,6.37755 C181.714,6.7517 181.561,7.19388 181.288,7.70408 Z" id="Shape" fill="#746F61"></path>
            <path d="M204.008,1.47959 C204.281,0.969388 204.742,0.612246 205.39,0.408165 C206.039,0.204082 206.892,0.10204 207.949,0.10204 C209.041,0.10204 209.912,0.204082 210.56,0.408165 C211.208,0.612246 211.652,0.969388 211.891,1.47959 C212.164,1.9898 212.317,2.44898 212.351,2.85714 C212.42,3.23129 212.454,3.80953 212.454,4.59184 L212.454,35.051 C212.454,35.8333 212.42,36.4286 212.351,36.8367 C212.317,37.2109 212.164,37.6361 211.891,38.1122 C211.379,39.0306 209.929,39.4898 207.54,39.4898 C205.185,39.4898 203.872,38.6565 203.599,36.9898 C202.165,38.6224 200.169,39.4388 197.61,39.4388 C194.539,39.4388 191.741,38.1122 189.215,35.4592 C186.69,32.7721 185.428,29.6599 185.428,26.1224 C185.428,22.551 186.69,19.4218 189.215,16.7347 C191.775,14.0476 194.573,12.7041 197.61,12.7041 C200.135,12.7041 202.097,13.5544 203.496,15.2551 L203.496,4.54082 C203.496,3.7585 203.513,3.18027 203.547,2.80612 C203.616,2.39796 203.769,1.95578 204.008,1.47959 Z" id="Path" fill="#746F61"></path>
            <path d="M234.6,1.47959 C234.873,0.969388 235.333,0.612246 235.982,0.408165 C236.63,0.204082 237.483,0.10204 238.541,0.10204 C239.633,0.10204 240.503,0.204082 241.151,0.408165 C241.8,0.612246 242.243,0.969388 242.482,1.47959 C242.755,1.9898 242.909,2.44898 242.943,2.85714 C243.011,3.23129 243.045,3.80953 243.045,4.59184 L243.045,35.051 C243.045,35.8333 243.011,36.4286 242.943,36.8367 C242.909,37.2109 242.755,37.6361 242.482,38.1122 C241.97,39.0306 240.52,39.4898 238.132,39.4898 C235.777,39.4898 234.463,38.6565 234.19,36.9898 C232.757,38.6224 230.761,39.4388 228.201,39.4388 C225.13,39.4388 222.332,38.1122 219.807,35.4592 C217.282,32.7721 216.019,29.6599 216.019,26.1224 C216.019,22.551 217.282,19.4218 219.807,16.7347 C222.366,14.0476 225.164,12.7041 228.201,12.7041 C230.727,12.7041 232.689,13.5544 234.088,15.2551 L234.088,4.54082 C234.088,3.7585 234.105,3.18027 234.139,2.80612 C234.207,2.39796 234.361,1.95578 234.6,1.47959 Z" id="Path" fill="#746F61"></path>
        </g>
    </g>
</svg>
